<svg xmlns="http://www.w3.org/2000/svg" viewBox="0 0 1280 820" role="img" aria-label="gate at the end of an alley">
  <defs>
    <linearGradient id="alley" x1="0" x2="1" y1="0" y2="1">
      <stop offset="0" stop-color="#253541"/>
      <stop offset="0.5" stop-color="#10171b"/>
      <stop offset="1" stop-color="#31231b"/>
    </linearGradient>
    <radialGradient id="gateGlow" cx="50%" cy="42%" r="42%">
      <stop offset="0" stop-color="#e9b86c" stop-opacity="0.45"/>
      <stop offset="1" stop-color="#e9b86c" stop-opacity="0"/>
    </radialGradient>
  </defs>
  <rect width="1280" height="820" fill="url(#alley)"/>
  <rect width="1280" height="820" fill="url(#gateGlow)"/>
  <path d="M0 820 418 120h112L392 820Z" fill="#12171a" opacity="0.78"/>
  <path d="M1280 820 862 120H750l138 700Z" fill="#12171a" opacity="0.78"/>
  <rect x="438" y="170" width="404" height="584" rx="34" fill="#0c1113" opacity="0.8"/>
  <g stroke="#53646b" stroke-width="12" stroke-linecap="round">
    <line x1="490" y1="210" x2="490" y2="742"/>
    <line x1="574" y1="190" x2="574" y2="742"/>
    <line x1="658" y1="184" x2="658" y2="742"/>
    <line x1="742" y1="190" x2="742" y2="742"/>
    <line x1="826" y1="210" x2="826" y2="742"/>
    <path d="M490 212c70-68 268-68 336 0" fill="none"/>
  </g>
  <circle cx="718" cy="468" r="16" fill="#e7b76c"/>
  <g stroke="#9fb4ba" stroke-width="3" stroke-linecap="round" opacity="0.45">
    <line x1="166" y1="70" x2="122" y2="304"/>
    <line x1="304" y1="92" x2="258" y2="324"/>
    <line x1="1004" y1="84" x2="954" y2="326"/>
    <line x1="1140" y1="68" x2="1092" y2="310"/>
  </g>
</svg>
