<svg xmlns="http://www.w3.org/2000/svg" viewBox="0 0 1280 720" role="img" aria-label="old library card">
  <defs>
    <linearGradient id="bg" x1="0" x2="1" y1="0" y2="1">
      <stop offset="0" stop-color="#30261f"/>
      <stop offset="1" stop-color="#111817"/>
    </linearGradient>
    <linearGradient id="card" x1="0" x2="1" y1="0" y2="1">
      <stop offset="0" stop-color="#ead8b6"/>
      <stop offset="1" stop-color="#b89564"/>
    </linearGradient>
  </defs>
  <rect width="1280" height="720" fill="url(#bg)"/>
  <ellipse cx="640" cy="520" rx="410" ry="82" fill="#050706" opacity="0.42"/>
  <rect x="292" y="108" width="696" height="446" rx="18" fill="url(#card)" transform="rotate(-3 640 331)"/>
  <g transform="rotate(-3 640 331)" opacity="0.72">
    <rect x="342" y="178" width="596" height="4" fill="#6d5438"/>
    <rect x="342" y="254" width="596" height="4" fill="#6d5438"/>
    <rect x="342" y="330" width="596" height="4" fill="#6d5438"/>
    <rect x="342" y="406" width="596" height="4" fill="#6d5438"/>
    <text x="360" y="226" font-family="Georgia, serif" font-size="42" fill="#4b3024">YU</text>
    <text x="360" y="302" font-family="Georgia, serif" font-size="42" fill="#4b3024">YU</text>
    <text x="360" y="378" font-family="Georgia, serif" font-size="42" fill="#4b3024">YU</text>
    <text x="360" y="454" font-family="Georgia, serif" font-size="42" fill="#4b3024">YU</text>
    <text x="626" y="226" font-family="Georgia, serif" font-size="30" fill="#7b5d3c">七年前</text>
    <text x="626" y="302" font-family="Georgia, serif" font-size="30" fill="#7b5d3c">十四年前</text>
    <text x="626" y="378" font-family="Georgia, serif" font-size="30" fill="#7b5d3c">二十一年前</text>
    <text x="626" y="454" font-family="Georgia, serif" font-size="30" fill="#7b5d3c">今晚</text>
  </g>
  <circle cx="910" cy="144" r="74" fill="#d6a95b" opacity="0.22"/>
</svg>
