<svg xmlns="http://www.w3.org/2000/svg" viewBox="0 0 1280 720" role="img" aria-label="burned coin on rooftop">
  <defs>
    <linearGradient id="sky" x1="0" x2="1" y1="0" y2="1">
      <stop offset="0" stop-color="#253943"/>
      <stop offset="0.58" stop-color="#17171a"/>
      <stop offset="1" stop-color="#372219"/>
    </linearGradient>
    <radialGradient id="ash" cx="50%" cy="48%" r="36%">
      <stop offset="0" stop-color="#f1c573" stop-opacity="0.3"/>
      <stop offset="1" stop-color="#f1c573" stop-opacity="0"/>
    </radialGradient>
  </defs>
  <rect width="1280" height="720" fill="url(#sky)"/>
  <rect width="1280" height="720" fill="url(#ash)"/>
  <path d="M0 548h1280v172H0Z" fill="#101315"/>
  <path d="M100 548h1080" stroke="#39464a" stroke-width="8"/>
  <ellipse cx="640" cy="472" rx="166" ry="74" fill="#050607" opacity="0.42"/>
  <circle cx="640" cy="390" r="142" fill="#1d1b18" stroke="#8d6530" stroke-width="12"/>
  <path d="M562 336c48-44 112-44 156 0M560 448c50 42 116 42 160 0" stroke="#d5a64f" stroke-width="14" stroke-linecap="round" opacity="0.72"/>
  <path d="M638 268c-28 68-24 126 12 174 24 32 18 72-28 106" stroke="#0a0b0b" stroke-width="34" stroke-linecap="round" opacity="0.58"/>
  <g fill="#d5a64f" opacity="0.42">
    <circle cx="366" cy="170" r="3"/>
    <circle cx="902" cy="184" r="4"/>
    <circle cx="1048" cy="290" r="3"/>
    <circle cx="256" cy="300" r="4"/>
  </g>
</svg>
