<svg xmlns="http://www.w3.org/2000/svg" viewBox="0 0 960 420" role="img" aria-labelledby="title desc">
  <title id="title">Lamp in Gray Fog</title>
  <desc id="desc">A small lamp shines on a high seat surrounded by gray fog and stars.</desc>
  <defs>
    <radialGradient id="lampHalo" cx="50%" cy="50%" r="48%">
      <stop offset="0" stop-color="#ffe6a9" stop-opacity="0.9"/>
      <stop offset="0.46" stop-color="#d8cba9" stop-opacity="0.28"/>
      <stop offset="1" stop-color="#242a35" stop-opacity="0"/>
    </radialGradient>
    <linearGradient id="deep" x1="0" x2="1" y1="0" y2="1">
      <stop offset="0" stop-color="#0d1118"/>
      <stop offset="0.5" stop-color="#28303c"/>
      <stop offset="1" stop-color="#5f5b55"/>
    </linearGradient>
  </defs>
  <rect width="960" height="420" fill="url(#deep)"/>
  <circle cx="480" cy="198" r="260" fill="url(#lampHalo)"/>
  <g fill="#f5dd9d" opacity="0.76">
    <circle cx="180" cy="70" r="3"/>
    <circle cx="266" cy="124" r="2.5"/>
    <circle cx="344" cy="68" r="3"/>
    <circle cx="652" cy="82" r="3"/>
    <circle cx="762" cy="130" r="2.5"/>
    <circle cx="830" cy="72" r="3"/>
  </g>
  <path d="M310 316 C386 272 574 272 650 316 C590 354 368 354 310 316 Z" fill="#17191f" opacity="0.86"/>
  <path d="M404 164 h152 l-18 148 h-116 z" fill="#24222a"/>
  <path d="M414 160 C420 106 540 106 548 160 Z" fill="#32313a"/>
  <path d="M426 194 h108 v42 h-108 z" fill="#ffdc8e"/>
  <path d="M468 122 C448 152 468 166 480 190 C506 152 500 132 468 122 Z" fill="#ffc96f"/>
  <path d="M270 334 C380 300 516 356 662 318 C780 288 872 318 960 292 L960 420 L0 420 L0 332 C100 308 176 360 270 334 Z" fill="#bcb6aa" opacity="0.18"/>
  <path d="M138 246 C270 214 404 256 540 220 C684 182 790 224 914 190" fill="none" stroke="#d8d4c6" stroke-opacity="0.16" stroke-width="8"/>
</svg>
