<svg xmlns="http://www.w3.org/2000/svg" viewBox="0 0 1280 820" role="img" aria-label="old library room">
  <defs>
    <linearGradient id="room" x1="0" x2="1" y1="0" y2="1">
      <stop offset="0" stop-color="#423028"/>
      <stop offset="0.55" stop-color="#151817"/>
      <stop offset="1" stop-color="#26302e"/>
    </linearGradient>
    <radialGradient id="tableGlow" cx="50%" cy="58%" r="48%">
      <stop offset="0" stop-color="#e3b46e" stop-opacity="0.34"/>
      <stop offset="1" stop-color="#e3b46e" stop-opacity="0"/>
    </radialGradient>
  </defs>
  <rect width="1280" height="820" fill="url(#room)"/>
  <rect width="1280" height="820" fill="url(#tableGlow)"/>
  <g opacity="0.8">
    <rect x="84" y="96" width="308" height="560" rx="8" fill="#171514"/>
    <rect x="888" y="96" width="308" height="560" rx="8" fill="#171514"/>
    <g fill="#7a5335">
      <rect x="118" y="132" width="28" height="474"/>
      <rect x="160" y="126" width="36" height="480"/>
      <rect x="212" y="152" width="26" height="454"/>
      <rect x="254" y="118" width="40" height="488"/>
      <rect x="310" y="142" width="34" height="464"/>
      <rect x="920" y="132" width="28" height="474"/>
      <rect x="962" y="126" width="36" height="480"/>
      <rect x="1014" y="152" width="26" height="454"/>
      <rect x="1056" y="118" width="40" height="488"/>
      <rect x="1112" y="142" width="34" height="464"/>
    </g>
  </g>
  <rect x="470" y="98" width="340" height="288" rx="12" fill="#0b1012" opacity="0.72"/>
  <path d="M512 146h256M512 202h256M512 258h256M512 314h256" stroke="#647778" stroke-width="8" opacity="0.62"/>
  <path d="M326 692c72-94 558-94 628 0" fill="#4d3022"/>
  <path d="M238 748h804" stroke="#1d1410" stroke-width="34" stroke-linecap="round"/>
  <rect x="572" y="512" width="136" height="86" rx="8" fill="#a9875e"/>
  <path d="M572 512h136l-68 44Z" fill="#cfb083"/>
</svg>
